<svg xmlns="http://www.w3.org/2000/svg" xmlns:xlink="http://www.w3.org/1999/xlink" width="150" zoomAndPan="magnify" viewBox="0 0 112.5 89.999999" height="120" preserveAspectRatio="xMidYMid meet" version="1.0"><defs><g/><clipPath id="d66571528a"><path d="M 12.398438 1.398438 L 99.605469 1.398438 L 99.605469 88.601562 L 12.398438 88.601562 Z M 12.398438 1.398438 " clipRule="nonzero"/></clipPath><clipPath id="60167aa3bf"><path d="M 56 1.398438 C 31.917969 1.398438 12.398438 20.917969 12.398438 45 C 12.398438 69.082031 31.917969 88.601562 56 88.601562 C 80.082031 88.601562 99.605469 69.082031 99.605469 45 C 99.605469 20.917969 80.082031 1.398438 56 1.398438 Z M 56 1.398438 " clipRule="nonzero"/></clipPath></defs><g clipPath="url(#d66571528a)"><g clipPath="url(#60167aa3bf)"><path fill="#ff6f00" d="M 12.398438 1.398438 L 99.605469 1.398438 L 99.605469 88.601562 L 12.398438 88.601562 Z M 12.398438 1.398438 " fillOpacity="1" fillRule="nonzero"/></g></g><g fill="#ffffff" fillOpacity="1"><g transform="translate(26.509822, 72.669304)"><g><path d="M 10.03125 4.71875 L 4.640625 1.171875 L 19.609375 -27.859375 L 4.421875 -57.0625 L 9.578125 -60.671875 L 29.5625 -39.4375 L 49.390625 -60.671875 L 54.546875 -57.0625 L 39.296875 -27.859375 L 54.328125 1.171875 L 49.171875 4.796875 L 29.5625 -16.359375 Z M 10.03125 4.71875 "/></g></g></g></svg>